<svg width="26" height="38" viewBox="0 0 26 38" fill="none" xmlns="http://www.w3.org/2000/svg">
<path d="M25.6329 4.13413C25.2897 3.63364 24.7882 3.61927 24.2168 3.60289C24.152 3.60104 24.0864 3.59915 24.02 3.59654C23.9694 3.59432 23.9136 3.59517 23.8552 3.59607C23.6235 3.59961 23.3524 3.60376 23.2159 3.41836C23.0575 3.20342 23.0725 2.78803 23.0849 2.44512C23.0889 2.33676 23.0925 2.23557 23.0904 2.1503C23.0681 1.35371 23.0217 0.507523 22.6987 0.224644C22.4552 0.012405 21.7266 0.0418079 21.0546 0.0689245C20.8368 0.0777149 20.6249 0.0862651 20.4374 0.0862651H6.13472C5.84675 0.0862651 5.54488 0.0639397 5.24829 0.0420038C4.67035 -0.000739484 4.11241 -0.0420036 3.71621 0.0862651C3.1412 0.273329 3.10227 1.25631 3.06561 2.18194L3.06363 2.23174C3.03285 2.99588 2.83395 3.58551 2.17474 3.52612C1.40804 3.45816 0.64512 3.43673 0.298468 4.09739C-0.110936 4.87907 -0.0265008 5.69731 0.124735 7.16291C0.146339 7.37226 0.169305 7.59482 0.192389 7.83237H25.8541C25.8688 7.65874 25.8844 7.48734 25.8997 7.31871C26.0199 6.00012 26.1246 4.85126 25.6329 4.13413Z" fill="#8047F8"/>
<path fill-rule="evenodd" clip-rule="evenodd" d="M2.19085 9.28595C2.59163 14.4504 2.98804 19.6207 3.38446 24.7912L3.3847 24.7943C3.59994 27.6017 3.81519 30.4091 4.03113 33.2156H4.84993C4.90573 33.6549 4.96957 34.1972 5.03688 34.769C5.17351 35.9297 5.32446 37.212 5.45136 38H5.54193C6.37595 37.7095 12.1416 35.3631 12.1442 26.0216C12.1431 25.9949 12.1441 25.9683 12.147 25.9418H10.7225C10.6536 25.9412 10.5867 25.9193 10.5323 25.8795C10.4779 25.8396 10.4388 25.784 10.4212 25.7213C10.2824 25.3948 10.1705 25.0588 10.0865 24.7161C9.24848 25.1667 8.58301 25.8548 8.18493 26.6823C7.80704 25.8348 7.75758 24.8893 8.04519 24.011C8.3328 23.1327 8.93918 22.3774 9.75838 21.8772C9.76894 19.1513 10.8409 16.5237 12.7714 14.4916L12.8015 14.4664C12.8576 14.4202 12.9294 14.3945 13.0039 14.3939C13.047 14.3943 13.0896 14.403 13.1289 14.4197C13.1687 14.4365 13.2043 14.461 13.2334 14.4916C15.1864 16.5264 16.2527 19.1794 16.2196 21.9213C17.0541 22.4076 17.6728 23.1623 17.9609 24.0454C18.249 24.9285 18.187 25.88 17.7863 26.7232C17.3904 25.8945 16.7244 25.2058 15.8848 24.7571C15.8335 25.0892 15.7391 25.414 15.6036 25.7244C15.5567 25.8568 15.463 25.9418 15.3692 25.9418H13.8501C13.8525 25.9577 13.8542 25.9736 13.8552 25.9896L13.8558 25.9932V26.001C13.8563 26.0147 13.8563 26.0285 13.8558 26.0423C13.8766 35.652 20.0068 37.8332 20.5235 38H20.7003C20.7454 37.2431 20.8923 36.1987 21.0355 35.1805C21.1342 34.4788 21.2311 33.7896 21.2917 33.2156H22.12C22.3851 29.6805 22.6578 26.1553 22.9305 22.6301L22.9306 22.6282L22.9307 22.6272C23.2795 18.118 23.6283 13.6087 23.9613 9.07839H2.24389C2.18137 9.09002 2.18564 9.18737 2.19085 9.28595ZM13.0039 14.3939L13.0024 14.3939H13.0057L13.0039 14.3939Z" fill="#8047F8"/>
</svg>
